<svg width="53" height="48" viewBox="0 0 53 48" fill="none" xmlns="http://www.w3.org/2000/svg">
<path d="M49.7455 6.10909H40.1455V0H36.6545V6.10909H15.7091V0H12.2182V6.10909H2.61818C1.92404 6.1099 1.25857 6.386 0.767741 6.87683C0.276911 7.36766 0.000808412 8.03314 0 8.72727V45.3818C0.000808412 46.076 0.276911 46.7414 0.767741 47.2323C1.25857 47.7231 1.92404 47.9992 2.61818 48H49.7455C50.4396 47.9992 51.1051 47.7231 51.5959 47.2323C52.0867 46.7414 52.3628 46.076 52.3636 45.3818V8.72727C52.3628 8.03314 52.0867 7.36766 51.5959 6.87683C51.1051 6.386 50.4396 6.1099 49.7455 6.10909ZM48.8727 44.5091H3.49091V9.6H12.2182V13.9636H15.7091V9.6H36.6545V13.9636H40.1455V9.6H48.8727V44.5091Z" fill="black"/>
<path d="M13.9636 20.0727H10.4727V23.5636H13.9636V20.0727Z" fill="black"/>
<path d="M23.5636 20.0727H20.0727V23.5636H23.5636V20.0727Z" fill="black"/>
<path d="M32.2909 20.0727H28.8V23.5636H32.2909V20.0727Z" fill="black"/>
<path d="M41.8909 20.0727H38.4V23.5636H41.8909V20.0727Z" fill="black"/>
<path d="M13.9636 27.9273H10.4727V31.4182H13.9636V27.9273Z" fill="black"/>
<path d="M23.5636 27.9273H20.0727V31.4182H23.5636V27.9273Z" fill="black"/>
<path d="M32.2909 27.9273H28.8V31.4182H32.2909V27.9273Z" fill="black"/>
<path d="M41.8909 27.9273H38.4V31.4182H41.8909V27.9273Z" fill="black"/>
<path d="M13.9636 35.7818H10.4727V39.2727H13.9636V35.7818Z" fill="black"/>
<path d="M23.5636 35.7818H20.0727V39.2727H23.5636V35.7818Z" fill="black"/>
<path d="M32.2909 35.7818H28.8V39.2727H32.2909V35.7818Z" fill="black"/>
<path d="M41.8909 35.7818H38.4V39.2727H41.8909V35.7818Z" fill="black"/>
</svg>
