<svg width="48" height="48" viewBox="0 0 48 48" fill="none" xmlns="http://www.w3.org/2000/svg">
<path d="M24 48C10.7609 48 0 37.2391 0 24C0 10.7609 10.7609 0 24 0C37.2391 0 48 10.7609 48 24C48 37.2391 37.2391 48 24 48ZM24 3.34884C12.614 3.34884 3.34884 12.614 3.34884 24C3.34884 35.386 12.614 44.6512 24 44.6512C35.386 44.6512 44.6512 35.386 44.6512 24C44.6512 12.614 35.386 3.34884 24 3.34884Z" fill="#292D32"/>
<path d="M32.2819 32.774C31.9917 32.774 31.7014 32.707 31.4335 32.5284L24.5126 28.3981C22.7935 27.3712 21.521 25.1163 21.521 23.1293V13.9758C21.521 13.0605 22.28 12.3014 23.1954 12.3014C24.1107 12.3014 24.8698 13.0605 24.8698 13.9758V23.1293C24.8698 23.933 25.5396 25.1163 26.2317 25.5181L33.1526 29.6484C33.9563 30.1172 34.2019 31.1442 33.7331 31.9479C33.3982 32.4837 32.84 32.774 32.2819 32.774Z" fill="#292D32"/>
</svg>
