<svg width="36" height="48" viewBox="0 0 36 48" fill="none" xmlns="http://www.w3.org/2000/svg">
<path d="M17.8403 11.2847C16.5418 11.2847 15.2724 11.6697 14.1927 12.3911C13.113 13.1126 12.2715 14.138 11.7746 15.3376C11.2777 16.5373 11.1477 17.8574 11.401 19.131C11.6543 20.4046 12.2796 21.5745 13.1978 22.4927C14.116 23.4109 15.2859 24.0362 16.5595 24.2895C17.833 24.5428 19.1531 24.4128 20.3528 23.9159C21.5525 23.4189 22.5779 22.5774 23.2993 21.4977C24.0208 20.4181 24.4058 19.1487 24.4058 17.8502C24.4038 16.1095 23.7115 14.4407 22.4806 13.2098C21.2498 11.979 19.581 11.2866 17.8403 11.2847ZM17.8403 21.1329C17.1911 21.1329 16.5564 20.9404 16.0165 20.5797C15.4767 20.2189 15.0559 19.7062 14.8075 19.1064C14.559 18.5066 14.494 17.8465 14.6207 17.2097C14.7473 16.5729 15.06 15.988 15.5191 15.5289C15.9782 15.0698 16.5631 14.7571 17.1999 14.6305C17.8367 14.5038 18.4967 14.5688 19.0966 14.8173C19.6964 15.0658 20.2091 15.4865 20.5698 16.0264C20.9305 16.5662 21.1231 17.2009 21.1231 17.8502C21.1221 18.7205 20.7759 19.5549 20.1605 20.1703C19.545 20.7857 18.7107 21.1319 17.8403 21.1329Z" fill="black"/>
<path d="M30.4565 5.2242C27.3372 2.10563 23.1732 0.253077 18.7683 0.0240785C14.3633 -0.20492 10.0297 1.20587 6.60381 3.98417C3.1779 6.76246 0.90255 10.7113 0.216917 15.0686C-0.468716 19.4258 0.483969 23.8826 2.8911 27.5788L15.2944 46.62C15.5705 47.0437 15.9479 47.3918 16.3924 47.6328C16.837 47.8738 17.3347 48 17.8404 48C18.3461 48 18.8437 47.8738 19.2883 47.6328C19.7329 47.3918 20.1103 47.0437 20.3863 46.62L32.7901 27.5788C35.0236 24.1501 36.0107 20.0578 35.5858 15.9879C35.161 11.9179 33.35 8.11772 30.4565 5.2242ZM30.0395 25.7869L17.8404 44.5139L5.64122 25.7869C1.9071 20.0545 2.70799 12.3831 7.54553 7.5454C8.89746 6.19344 10.5024 5.12099 12.2688 4.38931C14.0353 3.65763 15.9285 3.28104 17.8404 3.28104C19.7524 3.28104 21.6456 3.65763 23.412 4.38931C25.1784 5.12099 26.7834 6.19344 28.1353 7.5454C32.9729 12.3831 33.7736 20.0545 30.0395 25.7869Z" fill="black"/>
</svg>
