<svg width="37" height="30" viewBox="0 0 37 30" fill="none" xmlns="http://www.w3.org/2000/svg">
<path d="M11.6113 30C25.5448 30 33.1638 18.456 33.1638 8.44745C33.1638 8.11988 33.1638 7.7923 33.1434 7.46765C34.6258 6.39495 35.9054 5.06686 36.9222 3.54555C35.5403 4.15849 34.0742 4.56073 32.573 4.73886C34.1537 3.79127 35.3365 2.3019 35.9014 0.547676C34.4142 1.43051 32.787 2.05269 31.0902 2.38735C29.9482 1.17308 28.4379 0.369038 26.7929 0.0996581C25.1479 -0.169721 23.46 0.110578 21.9903 0.89718C20.5207 1.68378 19.3513 2.93283 18.6631 4.45103C17.9749 5.96922 17.8062 7.67192 18.1832 9.29563C15.1715 9.14474 12.2251 8.36215 9.53542 6.99867C6.84574 5.63518 4.47287 3.72129 2.57086 1.38123C1.60119 3.04839 1.30339 5.02244 1.7381 6.90145C2.1728 8.78047 3.30733 10.4232 4.91067 11.495C3.71347 11.4546 2.54325 11.1287 1.49748 10.5445V10.641C1.49727 12.388 2.10065 14.0814 3.2055 15.4346C4.31035 16.7878 5.84881 17.7177 7.5605 18.067C6.44468 18.3709 5.27403 18.415 4.13853 18.1957C4.62198 19.7017 5.56421 21.0189 6.83334 21.9629C8.10248 22.9069 9.63501 23.4304 11.2164 23.4602C8.53151 25.5629 5.21779 26.7022 1.8075 26.695C1.20346 26.6954 0.599918 26.6602 0 26.5897C3.4637 28.8146 7.4946 29.9954 11.6113 29.9912" fill="#1DA1F2"/>
</svg>
